<svg xmlns="http://www.w3.org/2000/svg" viewBox="0 0 100 100" fill="none" width="100%" height="100%">
  <defs>
    <linearGradient id="fireOuter" x1="0%" y1="100%" x2="0%" y2="0%">
      <stop offset="0%" stop-color="#BF360C"/>
      <stop offset="50%" stop-color="#E53935"/>
      <stop offset="100%" stop-color="#FF9800"/>
    </linearGradient>
    <linearGradient id="fireInner" x1="0%" y1="100%" x2="0%" y2="0%">
      <stop offset="0%" stop-color="#FF5722"/>
      <stop offset="60%" stop-color="#FFC107"/>
      <stop offset="100%" stop-color="#FFF9C4"/>
    </linearGradient>
  </defs>
  <!-- Outer flame -->
  <path d="M50 5 C55 25 72 32 75 52 C78 72 65 92 50 95 C35 92 22 72 25 52 C28 35 42 28 44 15 C45 10 48 5 50 5 Z" fill="url(#fireOuter)"/>
  <!-- Middle tongue -->
  <path d="M50 30 C58 45 68 55 64 74 C60 85 52 88 50 88 C48 88 40 85 36 74 C32 58 42 48 50 30 Z" fill="url(#fireInner)"/>
  <!-- Core flame -->
  <path d="M50 52 C54 62 58 68 55 78 C53 84 48 85 50 85 C52 85 47 84 45 78 C42 68 46 62 50 52 Z" fill="#FFFFFF" opacity="0.9"/>
</svg>
